# xmcd
#
# Track frame offsets:
#	150
#	77601
#	108550
#	162119
#
# Disc length: 2435 seconds
#
# Revision: 1
# Processed by: cddbd v1.5.1PL0 Copyright (c) Steve Scherf et al.
# Submitted via: EasyCDDAExtractor 5.1.0
#
DISCID=24098104
DTITLE=Hoai Linh - Cuoi 3 Mien
DYEAR=1900
DGENRE=Comedy
TTITLE0=Thi Tai
TTITLE1=Ghen
TTITLE2=Chuyen hang xom
TTITLE3=Bia om
EXTD=
EXTT0=
EXTT1=
EXTT2=
EXTT3=
PLAYORDER=
